<?xml version="1.0" encoding="UTF-8" standalone="no"?>
<!-- Created with Inkscape (http://www.inkscape.org/) -->

<svg
   xmlns:dc="http://purl.org/dc/elements/1.1/"
   xmlns:cc="http://creativecommons.org/ns#"
   xmlns:rdf="http://www.w3.org/1999/02/22-rdf-syntax-ns#"
   xmlns:svg="http://www.w3.org/2000/svg"
   xmlns="http://www.w3.org/2000/svg"
   xmlns:sodipodi="http://sodipodi.sourceforge.net/DTD/sodipodi-0.dtd"
   xmlns:inkscape="http://www.inkscape.org/namespaces/inkscape"
   width="744.09448819"
   height="1052.3622047"
   id="svg4634"
   version="1.1"
   inkscape:version="0.48.1 "
   sodipodi:docname="New document 15">
  <defs
     id="defs4636" />
  <sodipodi:namedview
     id="base"
     pagecolor="#ffffff"
     bordercolor="#666666"
     borderopacity="1.0"
     inkscape:pageopacity="0.0"
     inkscape:pageshadow="2"
     inkscape:zoom="11.2"
     inkscape:cx="71.077033"
     inkscape:cy="1021.8513"
     inkscape:document-units="px"
     inkscape:current-layer="layer1"
     showgrid="true"
     showguides="true"
     inkscape:guide-bbox="true"
     inkscape:window-width="1920"
     inkscape:window-height="1018"
     inkscape:window-x="-8"
     inkscape:window-y="-8"
     inkscape:window-maximized="1">
    <inkscape:grid
       type="xygrid"
       id="grid4687" />
    <sodipodi:guide
       orientation="1,0"
       position="64,1030"
       id="guide4689" />
  </sodipodi:namedview>
  <metadata
     id="metadata4639">
    <rdf:RDF>
      <cc:Work
         rdf:about="">
        <dc:format>image/svg+xml</dc:format>
        <dc:type
           rdf:resource="http://purl.org/dc/dcmitype/StillImage" />
        <dc:title></dc:title>
      </cc:Work>
    </rdf:RDF>
  </metadata>
  <g
     inkscape:label="Layer 1"
     inkscape:groupmode="layer"
     id="layer1">
    <path
       sodipodi:type="arc"
       style="fill:#ffff00;fill-rule:evenodd;stroke:#000000;stroke-width:1px;stroke-linecap:butt;stroke-linejoin:miter;stroke-opacity:1"
       id="path3105"
       sodipodi:cx="155.05841"
       sodipodi:cy="180.60054"
       sodipodi:rx="61.619305"
       sodipodi:ry="61.619305"
       d="m 216.67772,180.60054 a 61.619305,61.619305 0 1 1 -123.238614,0 61.619305,61.619305 0 1 1 123.238614,0 z"
       transform="matrix(0.25756888,0,0,0.25756888,-23.938221,-30.483896)" />
    <path
       sodipodi:type="arc"
       style="fill:#ffff00;stroke:#000000;stroke-width:0.69933552;stroke-miterlimit:4;stroke-opacity:1;stroke-dasharray:none"
       id="path3432"
       sodipodi:cx="45.456863"
       sodipodi:cy="1035.6"
       sodipodi:rx="9.4070454"
       sodipodi:ry="13.28982"
       d="m 54.863909,1035.6 a 9.4070454,13.28982 0 1 1 -18.814091,0 9.4070454,13.28982 0 1 1 18.814091,0 z"
       transform="matrix(0.14340045,0,0,1.1178779,40.355439,-1140.6512)" />
    <path
       sodipodi:type="arc"
       style="fill:#ffff00;stroke:#000000;stroke-width:0.69933552;stroke-miterlimit:4;stroke-opacity:1;stroke-dasharray:none"
       id="path3432-6"
       sodipodi:cx="45.456863"
       sodipodi:cy="1035.6"
       sodipodi:rx="9.4070454"
       sodipodi:ry="13.28982"
       d="m 54.863909,1035.6 a 9.4070454,13.28982 0 1 1 -18.814091,0 9.4070454,13.28982 0 1 1 18.814091,0 z"
       transform="matrix(0.14340045,0,0,1.1178779,42.530209,-1140.6512)" />
    <rect
       style="fill:#ffff00;stroke:#000000;stroke-width:0.28;stroke-miterlimit:4;stroke-opacity:1;stroke-dasharray:none"
       id="rect4220"
       width="2.2728431"
       height="29.736366"
       x="46.902153"
       y="2.1567895" />
    <rect
       style="fill:#ffff00;stroke:none"
       id="rect4222"
       width="2.399112"
       height="29.420692"
       x="46.83902"
       y="2.409292" />
    <path
       transform="matrix(0.25756888,0,0,0.25756888,-23.938221,-30.483896)"
       d="m 216.67772,180.60054 a 61.619305,61.619305 0 1 1 -123.238614,0 61.619305,61.619305 0 1 1 123.238614,0 z"
       sodipodi:ry="61.619305"
       sodipodi:rx="61.619305"
       sodipodi:cy="180.60054"
       sodipodi:cx="155.05841"
       id="path4691"
       style="fill:#ffff00;fill-rule:evenodd;stroke:#000000;stroke-width:1px;stroke-linecap:butt;stroke-linejoin:miter;stroke-opacity:1"
       sodipodi:type="arc" />
    <path
       transform="matrix(0.25756888,0,0,0.25756888,40.061779,-30.483896)"
       d="m 216.67772,180.60054 a 61.619305,61.619305 0 1 1 -123.238614,0 61.619305,61.619305 0 1 1 123.238614,0 z"
       sodipodi:ry="61.619305"
       sodipodi:rx="61.619305"
       sodipodi:cy="180.60054"
       sodipodi:cx="155.05841"
       id="path4693"
       style="fill:#ffff00;fill-rule:evenodd;stroke:#000000;stroke-width:1px;stroke-linecap:butt;stroke-linejoin:miter;stroke-opacity:1"
       sodipodi:type="arc" />
    <path
       transform="matrix(0.14340045,0,0,1.1178779,104.35544,-1140.6512)"
       d="m 54.863909,1035.6 a 9.4070454,13.28982 0 1 1 -18.814091,0 9.4070454,13.28982 0 1 1 18.814091,0 z"
       sodipodi:ry="13.28982"
       sodipodi:rx="9.4070454"
       sodipodi:cy="1035.6"
       sodipodi:cx="45.456863"
       id="path4695"
       style="fill:#ffff00;stroke:#000000;stroke-width:0.69933552;stroke-miterlimit:4;stroke-opacity:1;stroke-dasharray:none"
       sodipodi:type="arc" />
    <path
       transform="matrix(0.14340045,0,0,1.1178779,106.53021,-1140.6512)"
       d="m 54.863909,1035.6 a 9.4070454,13.28982 0 1 1 -18.814091,0 9.4070454,13.28982 0 1 1 18.814091,0 z"
       sodipodi:ry="13.28982"
       sodipodi:rx="9.4070454"
       sodipodi:cy="1035.6"
       sodipodi:cx="45.456863"
       id="path4697"
       style="fill:#ffff00;stroke:#000000;stroke-width:0.69933552;stroke-miterlimit:4;stroke-opacity:1;stroke-dasharray:none"
       sodipodi:type="arc" />
    <rect
       y="2.1567895"
       x="110.90215"
       height="29.736366"
       width="2.2728431"
       id="rect4699"
       style="fill:#ffff00;stroke:#000000;stroke-width:0.28;stroke-miterlimit:4;stroke-opacity:1;stroke-dasharray:none" />
    <rect
       y="2.409292"
       x="110.83902"
       height="29.420692"
       width="2.399112"
       id="rect4701"
       style="fill:#ffff00;stroke:none" />
    <path
       sodipodi:type="arc"
       style="fill:#ffff00;fill-rule:evenodd;stroke:#000000;stroke-width:1px;stroke-linecap:butt;stroke-linejoin:miter;stroke-opacity:1"
       id="path4703"
       sodipodi:cx="155.05841"
       sodipodi:cy="180.60054"
       sodipodi:rx="61.619305"
       sodipodi:ry="61.619305"
       d="m 216.67772,180.60054 a 61.619305,61.619305 0 1 1 -123.238614,0 61.619305,61.619305 0 1 1 123.238614,0 z"
       transform="matrix(0.25756888,0,0,0.25756888,40.061779,-30.483896)" />
  </g>
</svg>
